HIERARCHY
ROOT Hips
{
	OFFSET 50.130001 -14.582015 94.249802
	CHANNELS 6 Xposition Yposition Zposition Xrotation Yrotation Zrotation
	JOINT spine
	{
		OFFSET 0.000000 -0.448574 7.800583
		CHANNELS 3 Xrotation Yrotation Zrotation
		JOINT spine1
		{
			OFFSET 0.000000 -0.000002 10.136398
			CHANNELS 3 Xrotation Yrotation Zrotation
			JOINT spine2
			{
				OFFSET 0.000000 -0.000002 9.712509
				CHANNELS 3 Xrotation Yrotation Zrotation
				JOINT Neck
				{
					OFFSET 0.000000 -1.188874 24.936096
					CHANNELS 3 Xrotation Yrotation Zrotation
					JOINT Head
					{
						OFFSET 0.000000 0.000000 7.533844
						CHANNELS 3 Xrotation Yrotation Zrotation
						End Site
						{
							OFFSET 0.000000 6.014017 18.236099
						}
					}
				}
				JOINT RightShoulder
				{
					OFFSET -4.089649 0.569455 10.488800
					CHANNELS 3 Xrotation Yrotation Zrotation
					JOINT RightArm
					{
						OFFSET 0.000000 -0.000002 13.757004
						CHANNELS 3 Xrotation Yrotation Zrotation
						JOINT RightArmRoll
						{
							OFFSET 0.000000 -0.000001 6.944778
							CHANNELS 3 Xrotation Yrotation Zrotation
							JOINT RightForeArm
							{
								OFFSET 0.000000 -0.000004 20.227692
								CHANNELS 3 Xrotation Yrotation Zrotation
								JOINT RightForeArmRoll
								{
									OFFSET 0.000000 -0.000001 7.793121
									CHANNELS 3 Xrotation Yrotation Zrotation
									JOINT RightHand
									{
										OFFSET 0.000000 -0.000003 15.639099
										CHANNELS 3 Xrotation Yrotation Zrotation
										End Site
										{
											OFFSET 0.000000 0.000000 0.100006
										}
									}
								}
							}
						}
					}
				}
				JOINT LeftShoulder
				{
					OFFSET 4.089649 0.569455 10.488800
					CHANNELS 3 Xrotation Yrotation Zrotation
					JOINT LeftArm
					{
						OFFSET 0.000000 -0.000002 13.757004
						CHANNELS 3 Xrotation Yrotation Zrotation
						JOINT LeftArmRoll
						{
							OFFSET 0.000000 -0.000001 6.944778
							CHANNELS 3 Xrotation Yrotation Zrotation
							JOINT LeftForeArm
							{
								OFFSET 0.000000 -0.000004 20.227692
								CHANNELS 3 Xrotation Yrotation Zrotation
								JOINT LeftForeArmRoll
								{
									OFFSET 0.000000 -0.000001 7.793121
									CHANNELS 3 Xrotation Yrotation Zrotation
									JOINT LeftHand
									{
										OFFSET 0.000000 -0.000003 15.639099
										CHANNELS 3 Xrotation Yrotation Zrotation
										End Site
										{
											OFFSET 0.000000 0.000000 0.100006
										}
									}
								}
							}
						}
					}
				}
			}
		}
	}
	JOINT RightUpLeg
	{
		OFFSET -6.914150 1.063581 -1.267883
		CHANNELS 3 Xrotation Yrotation Zrotation
		JOINT RightUpLegRoll
		{
			OFFSET 0.000000 -0.000003 18.337799
			CHANNELS 3 Xrotation Yrotation Zrotation
			JOINT RightLeg
			{
				OFFSET 0.000000 0.000004 -22.708496
				CHANNELS 3 Xrotation Yrotation Zrotation
				JOINT RightLegRoll
				{
					OFFSET 0.000000 -0.000004 22.782799
					CHANNELS 3 Xrotation Yrotation Zrotation
					JOINT RightFoot
					{
						OFFSET 0.000000 -0.000003 18.962898
						CHANNELS 3 Xrotation Yrotation Zrotation
						JOINT RightToeBase
						{
							OFFSET 0.000000 -0.000003 15.852005
							CHANNELS 3 Xrotation Yrotation Zrotation
							End Site
							{
								OFFSET 0.006718 0.884892 7.677017
							}
						}
					}
				}
			}
		}
	}
	JOINT LeftUpLeg
	{
		OFFSET 6.914150 1.063581 -1.267883
		CHANNELS 3 Xrotation Yrotation Zrotation
		JOINT LeftUpLegRoll
		{
			OFFSET 0.000000 -0.000003 18.337898
			CHANNELS 3 Xrotation Yrotation Zrotation
			JOINT LeftLeg
			{
				OFFSET 0.000000 -0.000004 22.708397
				CHANNELS 3 Xrotation Yrotation Zrotation
				JOINT LeftLegRoll
				{
					OFFSET 0.000000 -0.000004 22.993393
					CHANNELS 3 Xrotation Yrotation Zrotation
					JOINT LeftFoot
					{
						OFFSET 0.000000 -0.000003 18.752197
						CHANNELS 3 Xrotation Yrotation Zrotation
						JOINT LeftToeBase
						{
							OFFSET 0.000000 -0.000003 15.852005
							CHANNELS 3 Xrotation Yrotation Zrotation
							End Site
							{
								OFFSET -0.030113 0.884892 7.677017
							}
						}
					}
				}
			}
		}
	}
}
MOTION
Frames: 7
Frame Time: 0.041667
49.686699 -13.461012 94.192398 -7.541297 1.103524 -3.412228 -1.174555 0.562283 0.153402 1.656112 1.130288 0.313047 3.301307 1.133955 0.299462 8.794308 -3.255931 -3.391931 -6.936064 -16.076464 -2.484393 -14.374594 -25.567941 -15.712917 62.266955 -5.194285 56.499144 0.000001 0.000002 0.000001 96.926900 2.553456 -5.945556 0.000003 -0.000014 -2.999992 -5.000213 -7.998921 0.000146 -0.538978 68.433332 1.758454 4.455277 103.705863 -20.131995 0.000003 -0.000010 -0.000001 19.737845 4.527898 0.469666 0.000001 -0.000005 3.000001 -5.000212 7.999109 -0.000098 1.003851 -178.690193 0.428066 -179.999991 0.000005 -1.095995 168.738498 -2.185147 -0.744001 -0.000000 0.000000 0.207207 70.271397 6.647608 2.682986 25.456959 -7.355613 0.000001 4.827738 178.874007 5.388586 -0.000005 -0.000004 -1.391389 -10.783291 5.022080 0.666442 -0.000005 0.000000 -0.220368 72.773610 -7.541971 0.016990 25.456950 7.355614 -0.000001 
49.683502 -13.456814 94.203407 -7.520432 1.103627 -3.420154 -1.177496 0.560235 0.153844 1.649549 1.127392 0.314346 3.294742 1.131078 0.300794 8.757869 -3.226360 -3.398307 -6.914008 -16.091682 -2.488536 -14.383216 -25.577272 -15.726038 62.222695 -5.242233 56.956732 -0.000002 -0.000000 0.000000 96.764458 2.464042 -5.784643 0.000000 -0.000011 -2.999994 -5.000211 -7.998922 0.000147 -0.570163 68.419029 1.791685 4.456905 103.718929 -20.102836 0.000003 -0.000010 -0.000001 19.744885 4.545916 0.467390 0.000001 -0.000005 3.000000 -5.000210 7.999110 -0.000099 0.987172 -178.691190 0.424656 -179.999991 0.000005 -1.095994 168.747787 -2.187173 -0.744036 -0.000000 0.000000 0.207219 70.277606 6.647853 2.681357 25.456959 -7.355613 0.000001 4.810523 178.867997 5.382161 -0.000005 -0.000004 -1.390649 -10.776001 5.030347 0.667302 -0.000006 0.000000 -0.219643 72.768808 -7.539199 0.008490 25.456950 7.355613 -0.000001 
49.678909 -13.453115 94.229698 -7.499355 1.103462 -3.427418 -1.180483 0.558377 0.154269 1.642866 1.124797 0.315593 3.288058 1.128499 0.302072 8.721644 -3.200211 -3.404629 -6.892013 -16.102926 -2.492551 -14.392505 -25.586642 -15.740154 62.176127 -5.290681 57.415745 -0.000003 0.000002 0.000001 96.595786 2.374793 -5.623870 0.000003 -0.000014 -2.999991 -5.000212 -7.998919 0.000145 -0.601646 68.404024 1.825163 4.456819 103.732965 -20.072493 0.000003 -0.000010 -0.000002 19.751299 4.563302 0.465209 0.000001 -0.000005 2.999999 -5.000213 7.999109 -0.000098 0.970194 -178.692188 0.421374 -179.999991 0.000005 -1.097005 168.756694 -2.188219 -0.743891 -0.000000 -0.000000 0.207244 70.283951 6.648130 2.679728 25.456960 -7.355614 0.000001 4.792982 178.862983 5.375929 -0.000005 -0.000004 -1.389890 -10.768910 5.038659 0.668145 -0.000005 0.000000 -0.218885 72.764102 -7.536387 -0.000199 25.456952 7.355614 -0.000001 
49.680004 -13.451316 94.225006 -7.478185 1.103000 -3.434034 -1.183524 0.556767 0.154673 1.636144 1.122582 0.316781 3.281334 1.126301 0.303287 8.685732 -3.178421 -3.410854 -6.870351 -16.109493 -2.496404 -14.402398 -25.596347 -15.755242 62.127257 -5.339168 57.876496 0.000000 0.000001 0.000001 96.420360 2.285717 -5.462210 0.000003 -0.000015 -2.999989 -5.000208 -7.998923 0.000147 -0.633300 68.388096 1.858738 4.455033 103.747971 -20.041184 0.000003 -0.000010 -0.000002 19.757295 4.579934 0.463139 0.000003 -0.000005 2.999999 -5.000214 7.999109 -0.000099 0.952880 -178.693185 0.418280 -179.999991 0.000005 -1.097006 168.764986 -2.190251 -0.743965 -0.000000 0.000000 0.207289 70.290515 6.648482 2.677993 25.456957 -7.355615 0.000002 4.775186 178.857984 5.369847 -0.000005 -0.000004 -1.389130 -10.762120 5.047016 0.668970 -0.000005 0.000001 -0.218085 72.759587 -7.533496 -0.009063 25.456952 7.355613 -0.000001 
49.682503 -13.445116 94.236900 -7.456999 1.102211 -3.440002 -1.186585 0.555466 0.155057 1.629432 1.120836 0.317907 3.274621 1.124561 0.304438 8.650238 -3.161904 -3.416955 -6.849315 -16.110364 -2.500044 -14.413053 -25.606750 -15.771409 62.075901 -5.387185 58.339091 0.000001 0.000003 0.000001 96.237604 2.196802 -5.299721 0.000001 -0.000013 -2.999985 -5.000211 -7.998921 0.000141 -0.664989 68.371177 1.892259 4.451993 103.762957 -20.009454 0.000003 -0.000010 -0.000004 19.763069 4.595677 0.461204 0.000001 -0.000004 3.000000 -5.000213 7.999109 -0.000098 0.935214 -178.693171 0.415448 -179.999991 0.000005 -1.097005 168.772472 -2.192264 -0.744067 0.000000 0.000000 0.207366 70.297311 6.648869 2.676355 25.456960 -7.355614 0.000001 4.757189 178.852957 5.363941 -0.000005 -0.000004 -1.388351 -10.755636 5.055380 0.669759 -0.000006 -0.000000 -0.217236 72.755141 -7.530534 -0.018311 25.456948 7.355613 -0.000001 
49.674706 -13.442414 94.227600 -7.435912 1.101054 -3.445325 -1.189654 0.554531 0.155416 1.622780 1.119621 0.318967 3.267968 1.123361 0.305516 8.615250 -3.151587 -3.422890 -6.829197 -16.104845 -2.503444 -14.424369 -25.617972 -15.788597 62.022168 -5.434208 58.803660 0.000001 0.000001 0.000001 96.046796 2.107940 -5.137358 0.000002 -0.000011 -2.999991 -5.000209 -7.998919 0.000141 -0.696589 68.353241 1.925576 4.446945 103.779916 -19.976831 0.000003 -0.000010 -0.000002 19.768815 4.610420 0.459409 0.000004 -0.000004 3.000000 -5.000210 7.999109 -0.000098 0.917161 -178.692160 0.412936 -179.999991 0.000005 -1.097005 168.778960 -2.194284 -0.744209 -0.000000 0.000000 0.207482 70.304537 6.649302 2.674698 25.456957 -7.355614 -0.000000 4.739093 178.848954 5.358322 -0.000005 -0.000004 -1.387560 -10.749551 5.063736 0.670510 -0.000005 -0.000000 -0.216333 72.751015 -7.527511 -0.027430 25.456952 7.355613 -0.000001 
49.667606 -13.430316 94.231812 -7.415023 1.099510 -3.450015 -1.192694 0.554025 0.155752 1.616248 1.119035 0.319956 3.261437 1.122779 0.306517 8.580857 -3.148392 -3.428636 -6.810296 -16.092125 -2.506578 -14.436401 -25.630490 -15.806888 61.965942 -5.479682 59.270257 0.000001 0.000003 0.000000 95.847321 2.019234 -4.975144 -0.000000 -0.000011 -2.999991 -5.000209 -7.998920 0.000142 -0.727968 68.334110 1.958523 4.440624 103.796841 -19.943987 0.000003 -0.000011 -0.000002 19.774531 4.624027 0.457780 0.000002 -0.000005 3.000000 -5.000213 7.999109 -0.000098 0.898697 -178.692160 0.410773 -179.999991 0.000005 -1.095995 168.784247 -2.197259 -0.743577 0.000000 0.000000 0.207649 70.312119 6.649845 2.672840 25.456957 -7.355614 0.000001 4.720965 178.843941 5.352876 -0.000005 -0.000004 -1.386750 -10.743969 5.072065 0.671213 -0.000007 0.000000 -0.215363 72.747068 -7.524412 -0.036922 25.456953 7.355613 -0.000001 
